# This file uses centimeters as units for non-parametric coordinates.

mtllib Speedbars.mtl
g default
v -0.000000 -0.000002 -1.918413
v 1.395174 0.000002 -0.875533
v -0.000000 -0.000002 -2.918413
v 1.395174 0.000002 -1.875533
v -1.395174 0.000002 -0.875533
v -1.395174 0.000002 -1.875533
v 0.000000 0.208714 -1.918413
v -0.000000 0.346020 -2.068398
v 1.333194 0.346018 -1.076200
v 1.395174 0.208712 -0.875533
v -0.000000 0.346020 -2.815840
v -0.000000 0.208714 -2.918413
v 1.330920 0.346018 -1.815241
v 1.395174 0.208712 -1.875533
v -1.395174 0.208712 -0.875533
v -1.333194 0.346018 -1.076200
v -1.330920 0.346018 -1.815241
v -1.395174 0.208712 -1.875533
v -0.000000 -0.000002 -0.709206
v 2.631052 0.000002 1.276143
v -0.000000 -0.000002 -1.709206
v 2.631052 0.000002 0.276143
v -2.631052 0.000002 1.276143
v -2.631052 0.000002 0.276143
v 0.000000 0.208714 -0.709206
v -0.000000 0.346020 -0.859191
v 2.569071 0.346018 1.075476
v 2.631052 0.208712 1.276143
v -0.000000 0.346020 -1.606634
v -0.000000 0.208714 -1.709206
v 2.566797 0.346018 0.336435
v 2.631052 0.208712 0.276143
v -2.631052 0.208712 1.276143
v -2.569071 0.346018 1.075476
v -2.566797 0.346018 0.336435
v -2.631052 0.208712 0.276143
v -0.000000 -0.000002 0.500000
v 3.245350 0.000002 2.939995
v -0.000000 -0.000002 -0.500000
v 3.245350 0.000002 1.939995
v -3.245350 0.000002 2.939995
v -3.245350 0.000002 1.939995
v 0.000000 0.208714 0.500000
v -0.000000 0.346020 0.350015
v 3.183370 0.346018 2.739328
v 3.245350 0.208712 2.939995
v -0.000000 0.346020 -0.397427
v -0.000000 0.208714 -0.500000
v 3.181095 0.346018 2.000286
v 3.245350 0.208712 1.939995
v -3.245350 0.208712 2.939995
v -3.183370 0.346018 2.739328
v -3.181095 0.346018 2.000286
v -3.245350 0.208712 1.939995
vt 0.741942 0.878747
vt 0.255202 0.725471
vt 0.269948 0.851113
vt 0.742060 0.688411
vt 0.491309 0.791759
vt 0.733011 0.750276
vt 0.695447 0.851399
vt 0.484390 0.925034
vt 0.713152 0.867762
vt 0.481565 0.979449
vt 0.749943 0.717595
vt 0.492988 0.759419
vt 0.226204 0.702570
vt 0.489721 0.822355
vt 0.282093 0.829940
vt 0.483146 0.948991
vt 0.257854 0.879080
vt 0.196331 0.710410
vt 0.512029 0.699491
vt 0.901570 0.518759
vt 0.133225 0.571012
vt 0.505925 0.541508
vt 0.506910 0.566987
vt 0.118359 0.440236
vt 0.092362 0.423251
vt 0.895350 0.380899
vt 0.884280 0.410095
vt 0.876344 0.511747
vt 0.860068 0.499354
vt 0.510208 0.652316
vt 0.511017 0.673238
vt 0.141252 0.546157
vt 0.149498 0.527134
vt 0.504878 0.514395
vt 0.885943 0.356879
vt 0.068291 0.432239
vt 0.495268 0.407377
vt 0.948689 0.216294
vt 0.060230 0.246233
vt 0.493803 0.259234
vt 0.494054 0.283036
vt 0.049072 0.125292
vt 0.024453 0.108560
vt 0.946170 0.086548
vt 0.935147 0.113698
vt 0.925185 0.209074
vt 0.910223 0.197036
vt 0.494844 0.362870
vt 0.495032 0.382647
vt 0.068169 0.223596
vt 0.076141 0.206339
vt 0.493549 0.233856
vt 0.937939 0.063732
vt 0.000959 0.116145
vt 0.038678 0.226331
vt 0.061712 0.218584
vt 0.037586 0.098887
vt 0.045268 0.076380
vt 0.918758 0.214540
vt 0.927370 0.237555
vt 0.982568 0.103495
vt 0.959002 0.096273
vt 0.109887 0.549361
vt 0.134330 0.540594
vt 0.104951 0.412424
vt 0.112127 0.388093
vt 0.869756 0.517686
vt 0.879676 0.541850
vt 0.934459 0.397873
vt 0.909174 0.390874
vt 0.233015 0.852327
vt 0.262788 0.844382
vt 0.241745 0.691212
vt 0.252607 0.663002
vt 0.705334 0.873716
vt 0.714467 0.902784
vt 0.793124 0.741392
vt 0.764224 0.730501
vn -0.000000 0.742525 0.669819
vn 0.000000 0.742525 0.669819
vn 0.446937 0.664237 0.599197
vn 0.446937 0.664237 0.599197
vn 0.000000 0.742525 0.669819
vn -0.000000 0.742525 0.669819
vn -0.446937 0.664237 0.599197
vn -0.446937 0.664237 0.599197
vn 0.272222 0.962235 -0.000356
vn 0.996220 0.086868 -0.000248
vn 0.865568 0.354862 -0.353363
vn 0.179147 0.976498 -0.119822
vn -0.510934 0.523791 -0.681608
vn -0.510934 0.523791 -0.681608
vn -0.865568 0.354862 -0.353363
vn -0.179147 0.976498 -0.119822
vn 0.510934 0.523791 -0.681608
vn 0.510934 0.523791 -0.681608
vn 0.179147 0.976498 -0.119822
vn 0.865568 0.354862 -0.353363
vn -0.996220 0.086868 -0.000248
vn -0.272222 0.962235 -0.000356
vn -0.179147 0.976498 -0.119822
vn -0.865568 0.354862 -0.353363
vn -0.598713 0.000000 0.800964
vn -0.598713 0.000000 0.800964
vn -0.598713 0.000000 0.800964
vn -0.598713 0.000000 0.800964
vn 0.000002 1.000000 -0.000000
vn 0.272222 0.962235 -0.000356
vn 0.179147 0.976498 -0.119822
vn 0.000002 1.000000 -0.000000
vn 0.598713 0.000000 -0.800964
vn 0.598713 0.000000 -0.800964
vn 0.598713 0.000000 -0.800964
vn 0.598713 0.000000 -0.800964
vn 1.000000 0.000000 0.000000
vn 1.000000 0.000000 0.000000
vn 0.865568 0.354862 -0.353363
vn 0.996220 0.086868 -0.000248
vn 0.598713 0.000000 0.800964
vn 0.598713 0.000000 0.800964
vn 0.598713 0.000000 0.800964
vn 0.598713 0.000000 0.800964
vn -0.000002 1.000000 0.000000
vn -0.000002 1.000000 0.000000
vn -0.179147 0.976498 -0.119822
vn -0.272222 0.962235 -0.000356
vn -0.598713 0.000000 -0.800964
vn -0.598713 0.000000 -0.800964
vn -0.598713 0.000000 -0.800964
vn -0.598713 0.000000 -0.800964
vn -1.000000 0.000000 0.000000
vn -0.996220 0.086868 -0.000248
vn -0.865568 0.354862 -0.353363
vn -1.000000 0.000000 0.000000
vn -0.000000 0.741986 0.670416
vn -0.000000 0.741986 0.670416
vn 0.451051 0.662221 0.598345
vn 0.451051 0.662221 0.598345
vn -0.000000 0.741986 0.670416
vn -0.000000 0.741986 0.670416
vn -0.451051 0.662221 0.598345
vn -0.451051 0.662221 0.598345
vn 0.155512 0.987834 -0.000203
vn 0.996220 0.086867 -0.000248
vn 0.775315 0.420782 -0.470988
vn 0.139412 0.982752 -0.121506
vn -0.513771 0.523377 -0.679791
vn -0.513771 0.523377 -0.679791
vn -0.775315 0.420782 -0.470988
vn -0.139412 0.982752 -0.121506
vn 0.513771 0.523377 -0.679791
vn 0.513771 0.523377 -0.679791
vn 0.139412 0.982752 -0.121506
vn 0.775315 0.420782 -0.470988
vn -0.996220 0.086867 -0.000248
vn -0.155512 0.987834 -0.000203
vn -0.139412 0.982752 -0.121506
vn -0.775315 0.420782 -0.470988
vn -0.602339 0.000000 0.798240
vn -0.602339 0.000000 0.798240
vn -0.602339 0.000000 0.798240
vn -0.602339 0.000000 0.798240
vn 0.000001 1.000000 -0.000000
vn 0.155512 0.987834 -0.000203
vn 0.139412 0.982752 -0.121506
vn 0.000001 1.000000 -0.000000
vn 0.602339 0.000000 -0.798240
vn 0.602339 0.000000 -0.798240
vn 0.602339 0.000000 -0.798240
vn 0.602339 0.000000 -0.798240
vn 1.000000 0.000000 0.000000
vn 1.000000 0.000000 0.000000
vn 0.775315 0.420782 -0.470988
vn 0.996220 0.086867 -0.000248
vn 0.602339 0.000000 0.798240
vn 0.602339 0.000000 0.798240
vn 0.602339 0.000000 0.798240
vn 0.602339 0.000000 0.798240
vn -0.000001 1.000000 -0.000000
vn -0.000001 1.000000 -0.000000
vn -0.139412 0.982752 -0.121506
vn -0.155512 0.987834 -0.000203
vn -0.602339 0.000000 -0.798240
vn -0.602339 0.000000 -0.798240
vn -0.602339 0.000000 -0.798240
vn -0.602339 0.000000 -0.798240
vn -1.000000 0.000000 0.000000
vn -0.996220 0.086867 -0.000248
vn -0.775315 0.420782 -0.470988
vn -1.000000 0.000000 0.000000
vn -0.000000 0.742164 0.670218
vn -0.000000 0.742164 0.670218
vn 0.449694 0.662888 0.598628
vn 0.449694 0.662888 0.598628
vn -0.000000 0.742164 0.670218
vn -0.000000 0.742164 0.670218
vn -0.449694 0.662888 0.598628
vn -0.449694 0.662888 0.598628
vn 0.127573 0.991829 -0.000167
vn 0.996220 0.086868 -0.000248
vn 0.743585 0.438632 -0.504661
vn 0.130555 0.983895 -0.122091
vn -0.512398 0.523578 -0.680672
vn -0.512398 0.523578 -0.680672
vn -0.743585 0.438632 -0.504661
vn -0.130555 0.983895 -0.122091
vn 0.512398 0.523578 -0.680672
vn 0.512398 0.523578 -0.680672
vn 0.130555 0.983895 -0.122091
vn 0.743585 0.438632 -0.504661
vn -0.996220 0.086868 -0.000248
vn -0.127573 0.991829 -0.000167
vn -0.130555 0.983895 -0.122091
vn -0.743585 0.438632 -0.504661
vn -0.600942 0.000000 0.799292
vn -0.600943 0.000000 0.799292
vn -0.600943 0.000000 0.799292
vn -0.600943 0.000000 0.799292
vn 0.000001 1.000000 -0.000000
vn 0.127573 0.991829 -0.000167
vn 0.130555 0.983895 -0.122091
vn 0.000001 1.000000 -0.000000
vn 0.600942 0.000000 -0.799292
vn 0.600942 0.000000 -0.799292
vn 0.600943 0.000000 -0.799292
vn 0.600942 0.000000 -0.799292
vn 1.000000 0.000000 0.000000
vn 1.000000 0.000000 0.000000
vn 0.743585 0.438632 -0.504661
vn 0.996220 0.086868 -0.000248
vn 0.600942 0.000000 0.799292
vn 0.600943 0.000000 0.799292
vn 0.600943 0.000000 0.799292
vn 0.600943 0.000000 0.799292
vn -0.000001 1.000000 0.000000
vn -0.000001 1.000000 0.000000
vn -0.130555 0.983895 -0.122091
vn -0.127573 0.991829 -0.000167
vn -0.600942 0.000000 -0.799292
vn -0.600942 0.000000 -0.799292
vn -0.600943 0.000000 -0.799292
vn -0.600942 0.000000 -0.799292
vn -1.000000 0.000000 0.000000
vn -0.996220 0.086868 -0.000248
vn -0.743585 0.438632 -0.504661
vn -1.000000 0.000000 0.000000
s off
g Speedbars
usemtl SpeedbarsSG
f 7/5/1 8/14/2 16/2/3 15/73/4
f 8/14/5 7/5/6 10/11/7 9/6/8
f 9/6/9 10/78/10 14/9/11 13/7/12
f 11/8/13 12/16/14 18/3/15 17/15/16
f 12/16/17 11/8/18 13/7/19 14/75/20
f 15/13/21 16/2/22 17/15/23 18/72/24
f 1/12/25 2/4/26 10/11/27 7/5/28
f 8/14/29 9/6/30 13/7/31 11/8/32
f 12/16/33 14/75/34 4/76/35 3/10/36
f 2/77/37 4/1/38 14/9/39 10/78/40
f 1/12/41 7/5/42 15/73/43 5/74/44
f 8/14/45 11/8/46 17/15/47 16/2/48
f 12/16/49 3/10/50 6/17/51 18/3/52
f 5/18/53 15/13/54 18/72/55 6/71/56
f 25/22/57 26/23/58 34/24/59 33/65/60
f 26/23/61 25/22/62 28/26/63 27/27/64
f 27/27/65 28/70/66 32/28/67 31/29/68
f 29/30/69 30/31/70 36/32/71 35/33/72
f 30/31/73 29/30/74 31/29/75 32/67/76
f 33/25/77 34/24/78 35/33/79 36/64/80
f 19/34/81 20/35/82 28/26/83 25/22/84
f 26/23/85 27/27/86 31/29/87 29/30/88
f 30/31/89 32/67/90 22/68/91 21/19/92
f 20/69/93 22/20/94 32/28/95 28/70/96
f 19/34/97 25/22/98 33/65/99 23/66/100
f 26/23/101 29/30/102 35/33/103 34/24/104
f 30/31/105 21/19/106 24/21/107 36/32/108
f 23/36/109 33/25/110 36/64/111 24/63/112
f 43/40/113 44/41/114 52/42/115 51/57/116
f 44/41/117 43/40/118 46/44/119 45/45/120
f 45/45/121 46/62/122 50/46/123 49/47/124
f 47/48/125 48/49/126 54/50/127 53/51/128
f 48/49/129 47/48/130 49/47/131 50/59/132
f 51/43/133 52/42/134 53/51/135 54/56/136
f 37/52/137 38/53/138 46/44/139 43/40/140
f 44/41/141 45/45/142 49/47/143 47/48/144
f 48/49/145 50/59/146 40/60/147 39/37/148
f 38/61/149 40/38/150 50/46/151 46/62/152
f 37/52/153 43/40/154 51/57/155 41/58/156
f 44/41/157 47/48/158 53/51/159 52/42/160
f 48/49/161 39/37/162 42/39/163 54/50/164
f 41/54/165 51/43/166 54/56/167 42/55/168
