# This file uses centimeters as units for non-parametric coordinates.

mtllib Tree2.mtl
g default
v -1.886689 15.728951 1.240449
v -2.847990 14.487828 2.395270
v -2.329056 13.102140 3.663603
v -0.633874 12.383606 4.302474
v 1.244540 12.753127 3.937644
v 2.205839 13.994249 2.782821
v 1.686906 15.379939 1.514488
v -0.008276 16.098473 0.875617
v -1.687763 18.690578 4.751133
v -2.554277 17.571833 5.792088
v -2.086512 16.322775 6.935362
v -0.558477 15.675090 7.511239
v 1.134723 16.008177 7.182384
v 2.001235 17.126923 6.141428
v 1.533472 18.375978 4.998152
v 0.005437 19.023666 4.422276
v -0.798809 25.797598 9.591682
v -1.272146 25.619106 10.407125
v -1.016627 25.413935 11.309046
v -0.181930 25.302275 11.769114
v 0.742988 25.349529 11.517832
v 1.216324 25.528017 10.702396
v 0.960806 25.733187 9.800469
v 0.126110 25.844852 9.340397
v -0.156623 34.421307 14.456507
v -0.288609 34.272675 14.635642
v -0.217363 34.106373 14.832769
v 0.015382 34.019806 14.932426
v 0.273284 34.063683 14.876234
v 0.405265 34.212311 14.697110
v 0.334015 34.378616 14.499977
v 0.101277 34.465187 14.400311
v 0.125394 39.536335 19.108204
v -2.761217 17.932775 -0.280919
v -3.761208 17.932775 -0.280919
v -4.261203 18.227608 0.533367
v -3.761208 18.522440 1.347654
v -2.761217 18.522440 1.347654
v -2.261221 18.227608 0.533367
v -0.943358 25.377432 -1.353217
v -1.943349 25.377432 -1.353217
v -2.443346 25.377432 -0.487199
v -1.943350 25.377432 0.378819
v -0.943359 25.377432 0.378819
v -0.443363 25.377432 -0.487199
v -3.058756 12.226395 2.348248
v -4.058747 12.226395 2.348248
v -4.558743 12.870291 2.927372
v -4.058747 13.514186 3.506495
v -3.058756 13.514186 3.506495
v -2.558761 12.870291 2.927372
v -1.398386 9.418805 4.062052
v -2.019036 9.176856 4.807856
v -2.036742 9.727739 5.642232
v -1.433797 10.520576 5.730807
v -0.813144 10.762530 4.985008
v -0.795437 10.211642 4.150630
v 2.608158 5.832355 4.249681
v 1.987514 5.590409 4.995477
v 1.969810 6.141294 5.829856
v 2.572754 6.934132 5.918435
v 3.193402 7.176088 5.172643
v 3.211105 6.625198 4.338267
v 0.982836 33.423439 -1.026060
v 0.360624 33.423439 -1.026065
v 0.049518 33.423439 -0.487208
v 0.360624 33.423439 0.051650
v 0.982836 33.423439 0.051644
v 1.293943 33.423439 -0.487208
v 2.229565 41.027901 -0.750865
v 1.925119 41.027901 -0.750868
v 1.772895 41.027901 -0.487208
v 1.925119 41.027901 -0.223548
v 2.229565 41.027901 -0.223550
v 2.381787 41.027901 -0.487208
v 1.464644 45.912891 -0.779174
v 7.593853 0.000002 6.119372
v 6.943273 -0.000002 6.751940
v 7.234228 -0.000004 7.675369
v 8.175772 -0.000002 7.966234
v 8.826362 0.000002 7.333676
v 8.535400 0.000004 6.410242
v 2.626708 17.932775 1.484470
v 3.424541 17.932775 0.881605
v 3.332549 18.227608 -0.069497
v 2.442724 18.522440 -0.417734
v 1.644891 18.522440 0.185130
v 1.736884 18.227608 1.136232
v 1.822806 25.377432 3.435924
v 2.620638 25.377432 2.833059
v 2.497458 25.377432 1.840684
v 1.576446 25.377432 1.451173
v 0.778614 25.377432 2.054038
v 0.901794 25.377432 3.046413
v 1.279052 12.226395 -0.792560
v 2.076884 12.226395 -1.395425
v 2.126663 12.870291 -2.158906
v 1.378611 13.514186 -2.319520
v 0.580779 13.514186 -1.716656
v 0.530998 12.870291 -0.953176
v -1.078858 9.418805 -1.158913
v -1.033301 9.176856 -2.128116
v -1.522197 9.727739 -2.804489
v -2.056650 10.520576 -2.511660
v -2.102211 10.762530 -1.542458
v -1.613316 10.211642 -0.866084
v -4.388552 5.832355 1.106815
v -4.342996 5.590409 0.137621
v -4.831893 6.141294 -0.538752
v -5.366347 6.934132 -0.245927
v -5.411911 7.176088 0.723265
v -4.923014 6.625198 1.399636
v -0.461349 32.736412 4.799547
v 0.035081 32.736412 4.424438
v -0.041569 32.736412 3.806960
v -0.614642 32.736412 3.564595
v -1.111064 32.736412 3.939712
v -1.034419 32.736412 4.557186
v -3.836196 40.798893 6.123170
v -3.593295 40.798893 5.939631
v -3.630798 40.798893 5.637501
v -3.911201 40.798893 5.518914
v -4.154099 40.798893 5.702457
v -4.116596 40.798893 6.004583
v -6.925365 48.923855 5.322261
v -9.493518 0.000002 2.620828
v -9.355814 -0.000002 1.723925
v -10.144658 -0.000004 1.162585
v -11.071213 -0.000002 1.498151
v -11.208928 0.000002 2.395052
v -10.420077 0.000004 2.956392
v 5.133865 0.000000 -5.133865
v 0.000000 0.000000 -7.260384
v -5.133865 0.000000 -5.133865
v -7.260384 0.000000 0.000000
v -5.133865 0.000000 5.133865
v 0.000000 0.000000 7.260384
v 5.133865 0.000000 5.133865
v 7.260385 0.000000 0.000000
v 0.853813 54.102520 1.987485
v 0.333789 28.449566 0.904181
v 0.905452 28.449566 2.284296
v 0.333789 28.449566 3.664411
v -1.046325 28.449566 4.236073
v -2.426440 28.449566 3.664411
v -2.998101 28.449566 2.284296
v -2.426440 28.449566 0.904181
v -1.046325 28.449566 0.332517
v -0.479137 43.599930 0.773712
v 0.277801 43.599930 1.087248
v 0.591336 43.599930 1.844186
v 0.277801 43.599930 2.601125
v -0.479137 43.599930 2.914660
v -1.236075 43.599930 2.601125
v -1.549610 43.599930 1.844186
v -1.236075 43.599930 1.087248
v -0.325651 11.866395 -1.038914
v 1.736575 11.866395 -0.184710
v 2.590777 11.866395 1.877516
v 1.736575 11.866395 3.939742
v -0.325651 11.866395 4.793944
v -2.387878 11.866395 3.939741
v -3.242081 11.866395 1.877516
v -2.387878 11.866395 -0.184710
v -3.086461 4.478101 -2.255037
v -0.122893 4.478101 -3.482588
v 2.840674 4.478101 -2.255037
v 4.068226 4.478101 0.708531
v 2.840675 4.478101 3.672099
v -0.122893 4.478101 4.899649
v -3.086461 4.478101 3.672099
v -4.314013 4.478101 0.708531
vt 0.372180 0.926380
vt 0.343550 0.945550
vt 0.304530 0.875330
vt 0.327690 0.856570
vt 0.312840 0.963300
vt 0.280750 0.892560
vt 0.279620 0.977500
vt 0.254330 0.905410
vt 0.244880 0.986850
vt 0.225700 0.912160
vt 0.210160 0.991760
vt 0.196320 0.913400
vt 0.176310 0.994520
vt 0.166580 0.912340
vt 0.142880 0.998040
vt 0.136130 0.912740
vt 0.400470 0.907510
vt 0.352500 0.838820
vt 0.231660 0.729900
vt 0.248040 0.725540
vt 0.214880 0.732520
vt 0.198260 0.735980
vt 0.182210 0.741610
vt 0.166750 0.748730
vt 0.151000 0.755170
vt 0.134420 0.758390
vt 0.262860 0.717580
vt 0.159120 0.576570
vt 0.163040 0.574070
vt 0.155070 0.578880
vt 0.150700 0.580650
vt 0.146080 0.581670
vt 0.141400 0.581980
vt 0.136750 0.581910
vt 0.132090 0.581900
vt 0.167060 0.571680
vt 0.117190 0.464300
vt 0.696500 0.423010
vt 0.713680 0.421720
vt 0.707810 0.551760
vt 0.690890 0.555760
vt 0.731110 0.422560
vt 0.725070 0.549260
vt 0.748120 0.425990
vt 0.742410 0.551360
vt 0.765300 0.429630
vt 0.758920 0.557100
vt 0.782790 0.430550
vt 0.775640 0.562190
vt 0.679490 0.424380
vt 0.673630 0.557140
vt 0.706080 0.314650
vt 0.721820 0.319760
vt 0.737200 0.327190
vt 0.753230 0.331690
vt 0.769550 0.328820
vt 0.786220 0.322420
vt 0.689180 0.317140
vt 0.715360 0.250070
vt 0.732360 0.251420
vt 0.748820 0.255470
vt 0.765320 0.259150
vt 0.781580 0.259280
vt 0.798380 0.256400
vt 0.697800 0.252040
vt 0.716710 0.156950
vt 0.734120 0.159830
vt 0.751290 0.164900
vt 0.769010 0.167760
vt 0.786500 0.165600
vt 0.803250 0.160150
vt 0.699320 0.158670
vt 0.707060 0.696610
vt 0.696430 0.699110
vt 0.717980 0.695760
vt 0.728730 0.697710
vt 0.739020 0.701330
vt 0.749500 0.704280
vt 0.685700 0.700930
vt 0.704960 0.832870
vt 0.699700 0.833310
vt 0.710300 0.832770
vt 0.715580 0.833280
vt 0.720730 0.834350
vt 0.725890 0.835630
vt 0.694410 0.833770
vt 0.705120 0.918160
vt 0.721010 0.020290
vt 0.735880 0.025470
vt 0.751130 0.018810
vt 0.763660 0.007210
vt 0.778570 0.001950
vt 0.794280 0.007240
vt 0.708690 0.008350
vt 0.557090 0.412720
vt 0.574350 0.413300
vt 0.554320 0.541660
vt 0.537320 0.544730
vt 0.591650 0.416050
vt 0.571660 0.540570
vt 0.608220 0.421350
vt 0.588400 0.544990
vt 0.624870 0.426940
vt 0.603550 0.553460
vt 0.642150 0.429830
vt 0.619330 0.560920
vt 0.540020 0.412280
vt 0.520070 0.544640
vt 0.578500 0.306130
vt 0.593590 0.312930
vt 0.608090 0.321980
vt 0.623530 0.328180
vt 0.640080 0.327100
vt 0.657340 0.322530
vt 0.561420 0.306760
vt 0.594670 0.242970
vt 0.611430 0.246140
vt 0.627360 0.251930
vt 0.643370 0.257350
vt 0.659520 0.259230
vt 0.676530 0.258150
vt 0.577000 0.243040
vt 0.605920 0.150560
vt 0.622920 0.155270
vt 0.639460 0.162130
vt 0.656780 0.166860
vt 0.674400 0.166560
vt 0.691640 0.162900
vt 0.588440 0.150430
vt 0.538840 0.676980
vt 0.528420 0.680100
vt 0.549760 0.676840
vt 0.559790 0.681140
vt 0.568710 0.687420
vt 0.578630 0.691910
vt 0.517720 0.681950
vt 0.519210 0.831340
vt 0.514040 0.832530
vt 0.524470 0.831990
vt 0.529190 0.834510
vt 0.533700 0.837320
vt 0.538780 0.838750
vt 0.508880 0.833830
vt 0.499940 0.983380
vt 0.624610 0.015140
vt 0.638840 0.021870
vt 0.654700 0.016860
vt 0.668380 0.006630
vt 0.683760 0.002950
vt 0.698820 0.009850
vt 0.613620 0.001950
vt 0.057990 0.066670
vt 0.124820 0.025700
vt 0.173300 0.115920
vt 0.122780 0.143300
vt 0.196730 0.005850
vt 0.229120 0.100620
vt 0.269080 0.001950
vt 0.286900 0.095120
vt 0.339460 0.005290
vt 0.345310 0.094900
vt 0.409490 0.007480
vt 0.404480 0.096150
vt 0.485250 0.007730
vt 0.463970 0.098780
vt 0.574480 0.022420
vt 0.521350 0.107460
vt 0.001950 0.133260
vt 0.082040 0.181900
vt 0.246880 0.541610
vt 0.271970 0.534300
vt 0.343100 0.795830
vt 0.329170 0.799350
vt 0.425240 0.515400
vt 0.451290 0.516810
vt 0.440290 0.772230
vt 0.426130 0.773680
vt 0.399290 0.515400
vt 0.411950 0.775760
vt 0.373470 0.516730
vt 0.397920 0.778970
vt 0.347840 0.519320
vt 0.384290 0.783680
vt 0.322420 0.523120
vt 0.371310 0.789930
vt 0.297170 0.528110
vt 0.357130 0.792640
vt 0.358130 0.816980
vt 0.364040 0.803210
vt 0.499930 0.929450
vt 0.352960 0.830650
vt 0.193680 0.256440
vt 0.231590 0.243320
vt 0.158170 0.273170
vt 0.432320 0.226470
vt 0.471530 0.228720
vt 0.392570 0.226650
vt 0.352420 0.227960
vt 0.311950 0.230250
vt 0.271410 0.234820
vn -0.613406 0.620445 -0.488652
vn -0.990368 0.133755 -0.035803
vn -0.991437 0.129718 0.015005
vn -0.633821 0.541997 -0.551825
vn -0.786874 -0.409626 0.461558
vn -0.750528 -0.308532 0.584393
vn -0.122130 -0.691391 0.712084
vn -0.114419 -0.524192 0.843879
vn 0.614466 -0.546487 0.569020
vn 0.577730 -0.425408 0.696603
vn 0.991428 -0.059797 0.116171
vn 0.980502 -0.049263 0.190236
vn 0.787934 0.483584 -0.381191
vn 0.807615 0.410756 -0.423129
vn 0.123190 0.765349 -0.631716
vn 0.124802 0.660790 -0.740123
vn -0.989000 0.147266 -0.013821
vn -0.612655 0.472493 -0.633566
vn -0.745901 -0.209424 0.632276
vn -0.108413 -0.379281 0.918908
vn 0.577177 -0.306650 0.756857
vn 0.981990 -0.008948 0.188724
vn 0.794533 0.359857 -0.489101
vn 0.125760 0.554811 -0.822417
vn -0.976870 0.171460 -0.127774
vn -0.570206 0.453818 -0.684773
vn -0.810306 -0.180318 0.557575
vn -0.127727 -0.371649 0.919545
vn 0.635909 -0.277744 0.720054
vn 0.995301 0.041243 0.087609
vn 0.746719 0.371661 -0.551615
vn 0.113451 0.528062 -0.841593
vn 0.009652 0.766040 0.642720
vn 0.436717 -0.300325 -0.847987
vn -0.492831 -0.165855 -0.854172
vn -0.478969 0.071808 -0.874890
vn 0.485566 -0.160200 -0.859396
vn -0.986231 0.133746 -0.097262
vn -0.964045 0.260494 -0.052537
vn -0.541167 0.309216 0.782000
vn -0.501984 0.218223 0.836894
vn 0.489503 0.137781 0.861048
vn 0.506364 -0.049407 0.860903
vn 0.984440 -0.174486 -0.020777
vn 0.973313 -0.229349 -0.007789
vn 0.287120 -0.436207 -0.852811
vn -0.610277 -0.521903 -0.595969
vn -0.986602 -0.102881 0.126619
vn -0.499830 0.343907 0.794920
vn 0.518756 0.472990 0.712161
vn 0.959096 0.067707 -0.274865
vn -0.123661 -0.396359 -0.909729
vn -0.689729 -0.717343 -0.098459
vn -0.599905 -0.304360 0.739919
vn -0.037472 0.339844 0.939735
vn 0.626127 0.721416 0.295843
vn 0.579277 0.363348 -0.729669
vn -0.155687 -0.356251 -0.921329
vn -0.697916 -0.696919 -0.164979
vn -0.508395 -0.333865 0.793769
vn 0.232931 0.385633 0.892766
vn 0.711007 0.689640 0.137350
vn 0.567995 0.351888 -0.744014
vn -0.470296 0.154503 -0.868879
vn 0.522980 -0.079742 -0.848606
vn -0.962041 0.272904 -0.000001
vn -0.470296 0.154505 0.868878
vn 0.522980 -0.079741 0.848607
vn 0.982702 -0.185195 0.000000
vn -0.459244 0.095802 -0.883129
vn 0.542396 -0.034815 -0.839401
vn -0.984469 0.175534 0.003065
vn -0.455346 0.114167 0.882964
vn 0.540034 -0.018770 0.841434
vn 0.996327 -0.085568 0.003418
vn -0.061596 0.997668 -0.029411
vn -0.009878 -0.317511 -0.948203
vn -0.723249 -0.676187 -0.140293
vn -0.496307 -0.169539 0.851431
vn 0.342237 0.505574 0.792003
vn 0.735369 0.645160 0.207367
vn 0.735329 0.420862 -0.531194
vn 0.162796 -0.300325 0.939842
vn 0.908155 -0.165855 0.384379
vn 0.911374 0.099767 0.399304
vn 0.140828 -0.184201 0.972748
vn 0.845490 0.133746 -0.516970
vn 0.791514 0.303602 -0.530407
vn -0.039680 0.309216 -0.950164
vn -0.092301 0.254342 -0.962700
vn -0.909645 0.137781 -0.391871
vn -0.918035 -0.065051 -0.391126
vn -0.772899 -0.174486 0.610066
vn -0.760836 -0.283068 0.583953
vn 0.285059 -0.436207 0.853502
vn 0.846195 -0.521903 0.107570
vn 0.710815 -0.102881 -0.695814
vn -0.080450 0.343907 -0.935551
vn -0.843225 0.472990 -0.255447
vn -0.599497 0.067707 0.797508
vn 0.647110 -0.396358 0.651267
vn 0.609650 -0.717343 -0.337262
vn 0.032553 -0.304360 -0.952001
vn -0.536642 0.339844 -0.772348
vn -0.677904 0.721416 0.141438
vn -0.022275 0.363348 0.931387
vn 0.679655 -0.356250 0.641214
vn 0.656286 -0.696919 -0.289125
vn -0.072922 -0.333865 -0.939796
vn -0.724063 0.385633 -0.571856
vn -0.650074 0.689640 0.319062
vn -0.004626 0.351888 0.936031
vn 0.881106 0.258190 0.396220
vn 0.110084 -0.129448 0.985457
vn 0.731889 0.414244 -0.541054
vn -0.131032 0.223256 -0.965913
vn -0.912301 -0.192179 -0.361626
vn -0.742455 -0.345085 0.574174
vn 0.848096 0.312812 0.427646
vn 0.050986 -0.081275 0.995387
vn 0.726731 0.414677 -0.547636
vn -0.187075 0.096117 -0.977632
vn -0.904969 -0.295212 -0.306399
vn -0.751140 -0.334396 0.569182
vn -0.168510 0.985307 -0.027815
vn 0.579524 -0.317511 0.750559
vn 0.661615 -0.676187 -0.324094
vn -0.117330 -0.169539 -0.978514
vn -0.750525 0.505574 -0.425567
vn -0.711722 0.645160 0.277887
vn -0.266434 0.420862 0.867115
vn 0.535442 0.633367 -0.558703
vn 0.004790 0.644880 -0.764269
vn 0.000516 0.522737 -0.852494
vn 0.609048 0.505127 -0.611480
vn -0.539919 0.615769 -0.573860
vn -0.619196 0.478526 -0.622583
vn -0.832685 0.552851 -0.031506
vn -0.922088 0.386972 -0.002627
vn -0.631856 0.485984 0.603803
vn -0.676258 0.296473 0.674373
vn 0.006001 0.466461 0.884522
vn 0.000376 0.271428 0.962459
vn 0.626252 0.512478 0.587516
vn 0.668555 0.331459 0.665710
vn 0.811646 0.583364 -0.030293
vn 0.902520 0.430640 -0.002762
vn 0.997335 0.072686 0.006252
vn 0.703456 0.072234 -0.707058
vn 0.704497 0.013711 -0.709575
vn 0.999913 0.011556 -0.006301
vn 0.697469 0.064397 0.713716
vn 0.710196 0.042383 0.702727
vn -0.010047 0.052422 0.998575
vn 0.001234 0.087572 0.996158
vn -0.708277 0.043823 0.704574
vn -0.704523 0.119100 0.699616
vn -0.999036 0.043425 0.006396
vn -0.992847 0.119235 -0.006205
vn -0.714301 0.051423 -0.697947
vn -0.700482 0.089284 -0.708063
vn -0.009907 0.063344 -0.997943
vn 0.001288 0.046125 -0.998935
vn 0.062097 0.998048 0.006680
vn 0.702116 0.184622 -0.687713
vn 0.003740 0.183142 -0.983079
vn 0.990304 0.138477 0.011056
vn 0.701352 0.073475 0.709018
vn 0.003786 0.026165 0.999650
vn -0.699269 0.021668 0.714530
vn -0.997830 0.064891 0.011153
vn -0.704326 0.132937 -0.697318
s 1
g Group2
usemtl defaultMat
f 1/1/1 2/2/2 10/3/3 9/4/4
f 2/2/2 3/5/5 11/6/6 10/3/3
f 3/5/5 4/7/7 12/8/8 11/6/6
f 4/7/7 5/9/9 13/10/10 12/8/8
f 5/9/9 6/11/11 14/12/12 13/10/10
f 6/11/11 7/13/13 15/14/14 14/12/12
f 7/13/13 8/15/15 16/16/16 15/14/14
f 8/17/15 1/1/1 9/4/4 16/18/16
f 9/4/4 10/3/3 18/19/17 17/20/18
f 10/3/3 11/6/6 19/21/19 18/19/17
f 11/6/6 12/8/8 20/22/20 19/21/19
f 12/8/8 13/10/10 21/23/21 20/22/20
f 13/10/10 14/12/12 22/24/22 21/23/21
f 14/12/12 15/14/14 23/25/23 22/24/22
f 15/14/14 16/16/16 24/26/24 23/25/23
f 16/18/16 9/4/4 17/20/18 24/27/24
f 17/20/18 18/19/17 26/28/25 25/29/26
f 18/19/17 19/21/19 27/30/27 26/28/25
f 19/21/19 20/22/20 28/31/28 27/30/27
f 20/22/20 21/23/21 29/32/29 28/31/28
f 21/23/21 22/24/22 30/33/30 29/32/29
f 22/24/22 23/25/23 31/34/31 30/33/30
f 23/25/23 24/26/24 32/35/32 31/34/31
f 24/27/24 17/20/18 25/29/26 32/36/32
f 25/29/26 26/28/25 33/37/33
f 26/28/25 27/30/27 33/37/33
f 27/30/27 28/31/28 33/37/33
f 28/31/28 29/32/29 33/37/33
f 29/32/29 30/33/30 33/37/33
f 30/33/30 31/34/31 33/37/33
f 31/34/31 32/35/32 33/37/33
f 32/36/32 25/29/26 33/37/33
s 2
f 34/38/34 35/39/35 41/40/36 40/41/37
f 35/39/35 36/42/38 42/43/39 41/40/36
f 36/42/38 37/44/40 43/45/41 42/43/39
f 37/44/40 38/46/42 44/47/43 43/45/41
f 38/46/42 39/48/44 45/49/45 44/47/43
f 39/50/44 34/38/34 40/41/37 45/51/45
f 35/39/35 34/38/34 46/52/46 47/53/47
f 36/42/38 35/39/35 47/53/47 48/54/48
f 37/44/40 36/42/38 48/54/48 49/55/49
f 38/46/42 37/44/40 49/55/49 50/56/50
f 39/48/44 38/46/42 50/56/50 51/57/51
f 34/38/34 39/50/44 51/58/51 46/52/46
f 47/53/47 46/52/46 52/59/52 53/60/53
f 48/54/48 47/53/47 53/60/53 54/61/54
f 49/55/49 48/54/48 54/61/54 55/62/55
f 50/56/50 49/55/49 55/62/55 56/63/56
f 51/57/51 50/56/50 56/63/56 57/64/57
f 46/52/46 51/58/51 57/65/57 52/59/52
f 53/60/53 52/59/52 58/66/58 59/67/59
f 54/61/54 53/60/53 59/67/59 60/68/60
f 55/62/55 54/61/54 60/68/60 61/69/61
f 56/63/56 55/62/55 61/69/61 62/70/62
f 57/64/57 56/63/56 62/70/62 63/71/63
f 52/59/52 57/65/57 63/72/63 58/66/58
f 40/41/37 41/40/36 65/73/64 64/74/65
f 41/40/36 42/43/39 66/75/66 65/73/64
f 42/43/39 43/45/41 67/76/67 66/75/66
f 43/45/41 44/47/43 68/77/68 67/76/67
f 44/47/43 45/49/45 69/78/69 68/77/68
f 45/51/45 40/41/37 64/74/65 69/79/69
f 64/74/65 65/73/64 71/80/70 70/81/71
f 65/73/64 66/75/66 72/82/72 71/80/70
f 66/75/66 67/76/67 73/83/73 72/82/72
f 67/76/67 68/77/68 74/84/74 73/83/73
f 68/77/68 69/78/69 75/85/75 74/84/74
f 69/79/69 64/74/65 70/81/71 75/86/75
f 70/81/71 71/80/70 76/87/76
f 71/80/70 72/82/72 76/87/76
f 72/82/72 73/83/73 76/87/76
f 73/83/73 74/84/74 76/87/76
f 74/84/74 75/85/75 76/87/76
f 75/86/75 70/81/71 76/87/76
f 59/67/59 58/66/58 77/88/77 78/89/78
f 60/68/60 59/67/59 78/89/78 79/90/79
f 61/69/61 60/68/60 79/90/79 80/91/80
f 62/70/62 61/69/61 80/91/80 81/92/81
f 63/71/63 62/70/62 81/92/81 82/93/82
f 58/66/58 63/72/63 82/94/82 77/88/77
s 3
f 83/95/83 84/96/84 90/97/85 89/98/86
f 84/96/84 85/99/87 91/100/88 90/97/85
f 85/99/87 86/101/89 92/102/90 91/100/88
f 86/101/89 87/103/91 93/104/92 92/102/90
f 87/103/91 88/105/93 94/106/94 93/104/92
f 88/107/93 83/95/83 89/98/86 94/108/94
f 84/96/84 83/95/83 95/109/95 96/110/96
f 85/99/87 84/96/84 96/110/96 97/111/97
f 86/101/89 85/99/87 97/111/97 98/112/98
f 87/103/91 86/101/89 98/112/98 99/113/99
f 88/105/93 87/103/91 99/113/99 100/114/100
f 83/95/83 88/107/93 100/115/100 95/109/95
f 96/110/96 95/109/95 101/116/101 102/117/102
f 97/111/97 96/110/96 102/117/102 103/118/103
f 98/112/98 97/111/97 103/118/103 104/119/104
f 99/113/99 98/112/98 104/119/104 105/120/105
f 100/114/100 99/113/99 105/120/105 106/121/106
f 95/109/95 100/115/100 106/122/106 101/116/101
f 102/117/102 101/116/101 107/123/107 108/124/108
f 103/118/103 102/117/102 108/124/108 109/125/109
f 104/119/104 103/118/103 109/125/109 110/126/110
f 105/120/105 104/119/104 110/126/110 111/127/111
f 106/121/106 105/120/105 111/127/111 112/128/112
f 101/116/101 106/122/106 112/129/112 107/123/107
f 89/98/86 90/97/85 114/130/113 113/131/114
f 90/97/85 91/100/88 115/132/115 114/130/113
f 91/100/88 92/102/90 116/133/116 115/132/115
f 92/102/90 93/104/92 117/134/117 116/133/116
f 93/104/92 94/106/94 118/135/118 117/134/117
f 94/108/94 89/98/86 113/131/114 118/136/118
f 113/131/114 114/130/113 120/137/119 119/138/120
f 114/130/113 115/132/115 121/139/121 120/137/119
f 115/132/115 116/133/116 122/140/122 121/139/121
f 116/133/116 117/134/117 123/141/123 122/140/122
f 117/134/117 118/135/118 124/142/124 123/141/123
f 118/136/118 113/131/114 119/138/120 124/143/124
f 119/138/120 120/137/119 125/144/125
f 120/137/119 121/139/121 125/144/125
f 121/139/121 122/140/122 125/144/125
f 122/140/122 123/141/123 125/144/125
f 123/141/123 124/142/124 125/144/125
f 124/143/124 119/138/120 125/144/125
f 108/124/108 107/123/107 126/145/126 127/146/127
f 109/125/109 108/124/108 127/146/127 128/147/128
f 110/126/110 109/125/109 128/147/128 129/148/129
f 111/127/111 110/126/110 129/148/129 130/149/130
f 112/128/112 111/127/111 130/149/130 131/150/131
f 107/123/107 112/129/112 131/151/131 126/145/126
s 4
f 132/152/132 133/153/133 166/154/134 167/155/135
f 133/153/133 134/156/136 165/157/137 166/154/134
f 134/156/136 135/158/138 172/159/139 165/157/137
f 135/158/138 136/160/140 171/161/141 172/159/139
f 136/160/140 137/162/142 170/163/143 171/161/141
f 137/162/142 138/164/144 169/165/145 170/163/143
f 138/164/144 139/166/146 168/167/147 169/165/145
f 139/168/146 132/152/132 167/155/135 168/169/147
f 142/170/148 141/171/149 150/172/150 151/173/151
f 143/174/152 142/175/148 151/176/151 152/177/153
f 144/178/154 143/174/152 152/177/153 153/179/155
f 145/180/156 144/178/154 153/179/155 154/181/157
f 146/182/158 145/180/156 154/181/157 155/183/159
f 147/184/160 146/182/158 155/183/159 156/185/161
f 148/186/162 147/184/160 156/185/161 149/187/163
f 141/171/149 148/186/162 149/187/163 150/172/150
f 150/188/150 149/189/163 140/190/164
f 151/191/151 150/188/150 140/190/164
f 152/177/153 151/176/151 140/190/164
f 153/179/155 152/177/153 140/190/164
f 154/181/157 153/179/155 140/190/164
f 155/183/159 154/181/157 140/190/164
f 156/185/161 155/183/159 140/190/164
f 149/189/163 156/185/161 140/190/164
f 158/192/165 157/193/166 148/186/162 141/171/149
f 159/194/167 158/192/165 141/171/149 142/170/148
f 160/195/168 159/196/167 142/175/148 143/174/152
f 161/197/169 160/195/168 143/174/152 144/178/154
f 162/198/170 161/197/169 144/178/154 145/180/156
f 163/199/171 162/198/170 145/180/156 146/182/158
f 164/200/172 163/199/171 146/182/158 147/184/160
f 157/193/166 164/200/172 147/184/160 148/186/162
f 166/154/134 165/157/137 164/200/172 157/193/166
f 167/155/135 166/154/134 157/193/166 158/192/165
f 168/169/147 167/155/135 158/192/165 159/194/167
f 169/165/145 168/167/147 159/196/167 160/195/168
f 170/163/143 169/165/145 160/195/168 161/197/169
f 171/161/141 170/163/143 161/197/169 162/198/170
f 172/159/139 171/161/141 162/198/170 163/199/171
f 165/157/137 172/159/139 163/199/171 164/200/172
